<?xml version="1.0" standalone="no"?>
<!DOCTYPE svg PUBLIC "-//W3C//DTD SVG 20010904//EN"
 "http://www.w3.org/TR/2001/REC-SVG-20010904/DTD/svg10.dtd">
<svg version="1.0" xmlns="http://www.w3.org/2000/svg"
 width="819.000000pt" height="819.000000pt" viewBox="0 0 819.000000 819.000000"
 preserveAspectRatio="xMidYMid meet">
<metadata>
Created by potrace 1.14, written by Peter Selinger 2001-2017
</metadata>
<g transform="translate(0.000000,819.000000) scale(0.100000,-0.100000)"
fill="#000000" stroke="none">
<path d="M1233 5607 c-2 -4 -14 -5 -25 -1 -14 4 -18 3 -13 -6 5 -8 0 -11 -17
-8 -14 1 -33 -4 -44 -12 -10 -9 -15 -10 -10 -3 5 9 2 11 -8 7 -9 -3 -13 -10
-10 -15 3 -5 -4 -9 -16 -9 -11 0 -23 -7 -26 -15 -5 -12 -9 -13 -20 -4 -12 10
-13 8 -8 -6 6 -14 4 -16 -6 -10 -10 6 -12 4 -7 -8 4 -12 2 -14 -10 -10 -11 4
-14 2 -9 -5 4 -7 2 -12 -3 -12 -6 0 -10 -6 -8 -12 1 -8 -6 -12 -17 -10 -12 2
-16 -1 -10 -9 5 -9 2 -10 -11 -5 -15 5 -16 4 -5 -9 11 -13 11 -16 -1 -13 -8 2
-13 -4 -13 -14 1 -11 -5 -15 -18 -13 -10 2 -16 0 -12 -6 3 -6 -2 -20 -13 -31
-12 -14 -13 -19 -3 -13 12 7 12 5 -1 -11 -9 -10 -14 -25 -11 -33 2 -8 0 -11
-6 -7 -6 3 -13 2 -17 -4 -3 -5 0 -10 7 -10 9 0 9 -3 2 -8 -14 -9 -28 -43 -25
-61 1 -7 -2 -11 -6 -8 -5 3 -7 -9 -5 -28 2 -18 -1 -36 -7 -39 -6 -4 -11 -12
-11 -17 0 -6 6 -7 13 -3 9 6 9 4 -1 -8 -9 -12 -12 -62 -12 -189 1 -204 2 -219
12 -213 7 4 13 -53 9 -78 0 -5 5 -8 12 -8 8 0 7 -4 -3 -10 -10 -6 -11 -10 -2
-10 6 0 12 -12 12 -27 0 -26 0 -26 22 -7 14 13 19 14 14 4 -4 -8 -1 -7 8 4 9
11 20 15 28 10 10 -6 10 -4 -1 9 -12 15 -11 17 7 17 15 0 20 5 16 15 -4 8 -2
15 4 15 6 0 7 13 1 38 -5 20 -12 52 -14 70 -3 18 -6 36 -6 40 -1 4 -1 12 0 17
5 26 2 195 -3 204 -4 5 -2 12 3 15 6 4 6 18 1 36 -5 17 -5 30 0 30 4 0 7 11 5
25 -1 14 2 28 6 31 5 3 9 18 9 35 0 16 5 29 11 29 6 0 9 6 7 12 -3 7 6 23 18
37 12 13 21 32 19 42 -2 11 1 19 7 19 5 0 8 7 5 15 -4 8 -1 17 5 21 7 4 8 3 4
-4 -4 -7 -1 -12 9 -12 9 0 13 4 10 10 -3 5 -1 18 5 27 11 17 11 17 6 0 -3 -11
-2 -15 4 -12 6 3 10 12 10 20 0 8 5 17 12 21 7 4 8 3 4 -4 -5 -8 -2 -10 8 -6
9 3 13 10 10 15 -5 9 15 14 49 11 11 -1 15 2 11 9 -5 9 1 10 20 5 16 -4 26 -2
26 4 0 6 5 8 11 4 6 -3 34 -6 62 -7 47 0 137 -24 154 -40 3 -4 17 -7 29 -7 13
0 26 -5 30 -11 3 -6 15 -9 25 -6 10 3 22 0 26 -5 3 -7 1 -8 -5 -4 -7 4 -12 2
-12 -3 0 -6 7 -11 15 -11 8 0 15 -6 15 -12 0 -9 3 -8 10 2 8 12 10 12 15 -2 4
-10 15 -15 27 -13 14 3 18 0 14 -11 -3 -9 -2 -12 4 -9 6 4 19 -4 30 -17 16
-18 19 -19 14 -4 -6 16 -4 17 13 7 17 -8 22 -7 27 5 4 10 12 14 22 10 15 -6
15 -4 3 11 -7 10 -10 15 -5 11 10 -8 36 14 29 25 -2 4 1 7 7 7 7 0 9 7 6 16
-3 8 -2 12 4 9 18 -11 10 14 -12 40 -12 14 -28 25 -35 25 -8 0 -11 5 -8 10 3
6 -3 10 -14 10 -12 0 -21 4 -21 9 0 5 -13 12 -30 16 -16 4 -30 11 -30 17 0 6
-3 8 -7 5 -3 -4 -17 0 -30 8 -17 12 -23 12 -23 3 -1 -8 -5 -7 -14 4 -7 10 -23
19 -35 21 -12 2 -31 11 -41 20 -11 9 -20 12 -20 7 0 -6 -11 -5 -27 3 -16 7
-44 15 -63 16 -87 6 -132 5 -137 -2z m-238 -317 c-3 -5 -12 -10 -18 -10 -7 0
-6 4 3 10 19 12 23 12 15 0z"/>
<path d="M1923 5385 c-18 -6 -40 -20 -49 -30 -8 -11 -13 -15 -10 -8 4 6 1 15
-5 19 -8 4 -9 3 -5 -4 4 -7 2 -12 -4 -12 -6 0 -8 -4 -5 -10 3 -5 1 -10 -6 -10
-7 0 -9 -3 -6 -7 4 -3 -1 -12 -11 -20 -9 -8 -11 -12 -5 -8 9 4 11 1 7 -9 -3
-9 -9 -14 -13 -12 -7 5 -6 -118 2 -131 2 -4 3 -16 2 -25 -2 -10 3 -18 11 -18
8 0 17 -7 20 -15 4 -8 11 -12 18 -8 6 4 5 -1 -2 -10 -12 -14 -11 -16 8 -12 16
3 19 1 12 -8 -11 -13 -5 -14 83 -18 35 -1 49 3 60 17 10 13 14 14 12 4 -2 -8
-2 -12 0 -7 3 4 9 5 14 2 5 -4 6 1 3 9 -5 13 31 43 47 39 4 -1 7 44 7 99 0 89
-2 104 -19 119 -15 13 -16 18 -7 22 8 3 6 6 -5 6 -11 1 -15 6 -11 13 5 8 0 9
-14 6 -12 -4 -20 -2 -16 3 3 5 0 9 -6 9 -6 0 -9 4 -5 9 3 6 -4 8 -15 6 -11 -2
-20 -1 -20 3 0 11 -30 9 -67 -3z"/>
<path d="M2425 4950 c-11 -4 -23 -6 -27 -3 -5 2 -8 -1 -8 -7 0 -6 -5 -8 -12
-4 -8 5 -9 2 -5 -10 4 -11 3 -15 -4 -11 -6 4 -13 -2 -16 -13 -3 -14 -11 -18
-26 -15 -16 3 -18 2 -8 -5 14 -10 -2 -28 -17 -18 -5 3 -9 -1 -9 -9 0 -8 5 -11
11 -8 6 4 5 -1 -3 -10 -8 -11 -12 -39 -11 -79 1 -35 2 -71 1 -81 0 -10 5 -15
11 -11 8 5 9 1 4 -11 -6 -16 -4 -16 11 -4 11 9 14 10 9 2 -4 -8 -2 -13 4 -13
7 0 10 -7 7 -14 -4 -11 -1 -13 10 -9 12 5 14 3 8 -7 -6 -10 -4 -12 8 -7 10 3
17 2 17 -4 0 -5 17 -9 38 -9 20 1 49 -1 65 -3 15 -2 27 0 27 5 0 5 5 6 10 3 6
-3 10 -1 10 5 0 6 5 8 10 5 6 -3 10 -1 10 5 0 6 5 8 12 4 7 -4 8 -3 4 5 -4 6
-13 8 -19 5 -7 -4 -3 2 8 13 11 11 23 19 26 17 3 -2 6 3 6 11 0 8 -5 11 -11 8
-6 -4 -5 1 3 11 16 19 16 128 1 157 -6 10 -5 20 3 28 9 10 8 11 -4 6 -10 -4
-20 -1 -25 6 -5 8 -3 10 5 4 9 -5 9 -2 0 14 -10 14 -15 17 -21 8 -5 -8 -8 -6
-8 7 0 11 -3 16 -7 12 -4 -3 -13 4 -20 16 -10 19 -12 20 -13 5 0 -16 -2 -16
-22 -3 -14 8 -31 11 -43 6z"/>
<path d="M1955 4828 c5 -12 -2 -15 -34 -15 -22 0 -44 -2 -47 -6 -4 -3 -16 -2
-27 4 -14 8 -18 8 -13 0 4 -6 -1 -12 -11 -13 -27 -2 -47 -6 -53 -8 -3 -2 -17
-3 -32 -4 -15 -1 -30 -5 -33 -8 -4 -4 -14 -4 -23 -1 -9 4 -13 2 -9 -4 4 -6 -6
-9 -23 -8 -17 1 -30 -1 -30 -4 0 -6 -18 -10 -57 -13 -7 -1 -13 -6 -13 -11 0
-5 -9 -7 -20 -4 -11 3 -20 1 -20 -5 0 -5 -8 -8 -17 -7 -10 1 -29 -3 -43 -8
-14 -6 -28 -9 -32 -6 -5 2 -8 0 -8 -4 0 -5 -9 -14 -21 -21 -12 -8 -18 -9 -14
-3 8 14 -1 14 -28 -1 -40 -22 -89 -37 -105 -31 -8 4 -13 2 -10 -3 3 -5 0 -15
-8 -22 -9 -8 -14 -9 -14 -2 0 6 -14 1 -32 -11 -17 -13 -28 -18 -24 -11 11 18
-9 15 -25 -4 -7 -8 -21 -13 -31 -10 -14 3 -17 1 -9 -8 7 -9 4 -12 -11 -13 -12
-1 -24 -7 -28 -14 -4 -6 -12 -9 -18 -5 -5 3 -12 -1 -15 -8 -3 -8 -25 -20 -48
-27 -22 -7 -43 -19 -46 -26 -4 -10 -9 -11 -19 -2 -12 10 -13 9 -8 -5 4 -9 3
-16 -2 -15 -21 4 -34 -2 -31 -13 1 -8 -6 -12 -17 -10 -14 3 -17 -1 -12 -13 3
-9 2 -14 -3 -10 -15 9 -41 -6 -41 -24 0 -14 -2 -14 -10 -1 -6 9 -10 10 -10 3
0 -7 -16 -20 -35 -29 -33 -15 -40 -25 -36 -48 1 -5 -6 -3 -15 5 -10 8 -15 9
-11 2 11 -18 -3 -42 -20 -36 -11 4 -14 2 -9 -5 4 -7 1 -12 -8 -12 -9 0 -17 -4
-17 -10 -3 -20 -4 -25 -12 -37 -4 -7 -15 -9 -24 -6 -10 4 -14 2 -10 -4 4 -6
-3 -13 -14 -16 -11 -3 -23 -15 -26 -26 -3 -11 -9 -19 -13 -16 -4 3 -10 -5 -13
-16 -4 -15 -11 -20 -22 -16 -13 6 -14 3 -4 -14 8 -15 8 -19 0 -15 -6 4 -11 2
-11 -4 0 -6 -5 -8 -12 -4 -10 6 -10 5 -1 -8 15 -18 5 -32 -12 -18 -9 8 -12 4
-11 -12 1 -16 -4 -22 -14 -20 -8 2 -12 0 -8 -4 4 -4 3 -13 -4 -21 -9 -11 -7
-12 8 -8 12 4 9 0 -6 -9 -14 -8 -21 -15 -17 -16 4 0 2 -10 -5 -22 -14 -27 -15
-30 -17 -64 -1 -16 -5 -23 -13 -18 -6 4 -8 3 -4 -4 3 -6 2 -13 -2 -16 -5 -3
-7 -16 -5 -30 3 -13 0 -27 -6 -30 -6 -4 -11 -12 -11 -17 0 -6 6 -7 13 -3 9 6
9 4 -1 -8 -13 -16 -14 -108 -2 -108 4 0 7 -13 8 -30 3 -51 5 -60 14 -60 4 0 8
-13 8 -30 0 -17 5 -30 12 -30 9 0 9 -3 1 -11 -9 -9 -6 -17 10 -31 12 -11 16
-17 10 -13 -7 3 -13 1 -13 -4 0 -6 6 -11 14 -11 8 0 17 -11 20 -25 4 -14 12
-25 19 -25 8 0 7 -4 -3 -10 -13 -8 -12 -10 3 -10 10 0 15 -4 12 -10 -3 -5 -1
-10 5 -10 6 0 8 -4 5 -10 -3 -5 1 -10 9 -10 10 0 13 -7 11 -21 -4 -17 -2 -19
10 -9 12 10 15 9 15 -9 0 -18 4 -21 23 -16 15 4 18 4 8 -3 -17 -12 -5 -33 14
-25 8 3 15 1 15 -5 0 -5 13 -15 30 -22 16 -7 30 -19 30 -26 0 -8 6 -13 13 -12
6 2 11 -2 10 -9 -2 -7 6 -10 17 -8 11 2 20 0 20 -6 0 -5 9 -9 19 -9 11 0 23
-4 26 -10 3 -5 15 -10 26 -10 12 0 29 -10 40 -22 16 -20 18 -20 12 -4 -6 18
-4 18 27 -4 18 -13 30 -18 25 -10 -5 8 8 4 28 -9 26 -16 37 -19 37 -9 0 8 3 9
8 2 11 -16 40 -24 44 -12 2 6 11 4 21 -6 12 -13 17 -14 17 -4 0 11 2 11 9 0 4
-8 11 -13 15 -13 9 2 59 -11 70 -17 5 -3 30 -5 55 -5 25 1 54 -4 65 -9 14 -7
17 -7 11 2 -6 9 -2 9 15 0 12 -6 28 -9 36 -6 8 3 14 2 14 -3 0 -9 31 -8 48 3
6 4 12 4 12 -1 0 -4 44 -8 97 -7 85 1 98 3 101 19 3 12 0 15 -10 10 -7 -3 -4
1 7 11 17 14 17 16 3 11 -17 -6 -21 2 -21 38 0 6 -7 11 -16 12 -9 1 -35 3 -58
6 -24 2 -43 1 -43 -3 0 -5 -9 -6 -20 -3 -11 3 -20 10 -20 17 0 6 -5 4 -10 -4
-7 -11 -10 -11 -10 -2 0 7 -4 10 -10 7 -5 -3 -10 -3 -10 2 0 4 -18 7 -40 7
-22 -1 -40 2 -40 7 0 6 -10 5 -21 -2 -15 -8 -19 -8 -15 0 6 10 -13 16 -37 12
-4 -1 -17 4 -29 10 -16 8 -19 8 -13 -1 6 -9 2 -9 -14 0 -37 20 -102 40 -96 30
4 -6 -5 -6 -22 1 -15 5 -31 16 -35 22 -6 9 -8 9 -8 0 0 -8 -8 -8 -32 0 -18 7
-35 14 -38 17 -3 3 -16 7 -30 9 -14 1 -27 6 -30 10 -5 7 -28 13 -47 14 -9 0
-10 4 -2 13 8 9 5 11 -10 7 -12 -3 -21 -1 -21 6 0 6 -8 11 -18 11 -9 0 -23 9
-30 20 -7 11 -22 20 -35 20 -18 0 -19 2 -7 10 12 8 11 10 -7 10 -14 0 -23 6
-23 16 0 11 -6 15 -20 11 -11 -3 -18 -1 -14 4 3 5 0 9 -6 9 -6 0 -8 5 -5 10 6
9 -8 15 -29 11 -5 -1 -6 5 -3 14 4 8 2 15 -4 15 -6 0 -7 4 -4 10 3 5 0 7 -8 4
-8 -3 -18 0 -23 7 -5 8 -3 10 5 4 8 -4 7 2 -3 17 -9 14 -13 28 -9 31 3 4 0 7
-8 7 -12 0 -12 2 0 9 11 7 9 10 -8 16 -19 6 -20 9 -9 23 7 9 8 13 2 9 -8 -5
-12 27 -12 113 0 84 3 118 10 114 6 -4 8 -2 5 3 -4 6 0 29 7 51 8 22 12 43 9
46 -4 3 -1 6 5 6 7 0 11 3 10 8 -1 4 4 20 10 35 8 18 16 26 24 21 8 -5 7 0 -2
11 -8 10 -10 16 -3 12 7 -4 14 1 18 14 4 11 12 18 19 16 7 -3 13 1 13 9 0 7
-4 11 -9 8 -4 -3 -8 0 -8 5 0 10 14 15 32 12 4 0 5 6 2 14 -4 8 -1 15 6 15 7
0 10 7 6 16 -4 11 -2 15 8 11 13 -5 30 25 27 46 -1 5 3 6 9 2 8 -5 7 -12 -2
-23 -12 -15 -11 -16 5 -3 10 8 16 20 13 26 -2 7 3 12 12 11 9 0 22 12 30 27 9
19 19 27 29 22 13 -4 14 -3 4 9 -11 13 -9 15 8 11 12 -2 19 0 16 6 -4 5 1 9
10 9 9 0 14 4 11 9 -7 11 22 23 35 15 5 -3 9 2 9 11 0 9 5 13 10 10 6 -3 10 2
10 12 0 15 2 16 10 3 7 -10 10 -11 10 -2 0 7 11 17 25 22 14 5 25 14 25 20 0
6 5 8 10 5 6 -3 13 1 16 10 5 12 9 13 20 4 12 -10 13 -9 8 5 -4 9 -3 16 2 15
15 -4 62 19 67 33 4 10 6 10 6 1 1 -7 5 -13 11 -13 5 0 9 6 7 13 -1 6 5 12 14
12 8 0 28 9 43 19 16 10 25 13 22 7 -4 -6 -2 -11 3 -11 6 0 11 4 11 8 0 5 11
14 25 20 21 10 23 9 19 -6 -3 -9 1 -7 8 6 11 18 16 20 27 10 8 -8 11 -8 8 -2
-7 12 22 25 58 28 11 0 26 7 33 14 7 6 23 12 36 12 12 0 26 4 32 10 5 5 18 11
29 13 11 1 26 6 33 10 6 5 17 5 22 2 6 -3 10 -2 10 3 0 6 14 9 31 8 16 -1 33
2 36 7 3 4 11 6 19 3 8 -3 14 -2 14 2 0 5 14 9 30 10 58 4 70 6 70 13 0 4 16
6 35 5 19 -1 35 2 35 7 0 4 10 3 21 -4 12 -6 19 -7 15 -1 -8 13 25 20 108 21
38 1 72 3 74 6 3 3 11 0 19 -7 11 -8 12 -7 7 5 -4 12 -1 15 15 12 11 -2 23 1
26 6 4 5 12 6 18 2 18 -11 47 -11 54 0 3 5 8 5 12 -1 4 -7 12 -7 20 -3 10 6
14 30 13 81 0 40 -3 74 -6 77 -10 10 -166 8 -166 -1 0 -6 -5 -5 -12 2 -8 8
-17 8 -30 1 -14 -7 -24 -7 -34 2 -12 10 -13 9 -9 -3z m-1224 -651 c-10 -9 -11
-8 -5 6 3 10 9 15 12 12 3 -3 0 -11 -7 -18z m-178 -2 c-3 -9 -8 -14 -10 -11
-3 3 -2 9 2 15 9 16 15 13 8 -4z"/>
<path d="M1090 4290 c0 -5 -6 -10 -14 -10 -7 0 -25 -6 -39 -13 -21 -11 -24
-16 -14 -26 9 -10 9 -12 -3 -9 -9 2 -14 -3 -11 -12 1 -8 4 -25 5 -37 0 -13 5
-23 9 -23 5 0 6 -4 2 -9 -3 -5 0 -13 6 -16 5 -4 8 -13 5 -20 -3 -8 -1 -15 4
-17 6 -2 11 -15 12 -30 1 -16 6 -28 10 -28 4 0 8 -7 8 -16 0 -20 25 -45 36
-36 5 4 2 -1 -5 -10 -9 -12 -10 -18 -2 -18 6 0 11 -7 11 -16 0 -9 10 -30 22
-47 12 -17 17 -28 12 -24 -6 3 -11 0 -11 -8 0 -8 4 -12 9 -9 8 5 11 -5 11 -39
0 -13 3 -15 13 -6 10 8 12 6 9 -10 -2 -12 0 -21 5 -21 5 0 14 -10 21 -21 9
-17 8 -20 -3 -14 -7 3 -6 1 3 -7 9 -7 15 -21 13 -30 -1 -10 4 -18 11 -18 8 0
17 -5 21 -12 5 -7 3 -8 -5 -3 -9 5 -9 1 1 -14 7 -12 16 -21 21 -21 4 0 5 -5 1
-12 -5 -8 -2 -9 11 -4 14 5 16 4 6 -8 -9 -11 -8 -15 5 -20 9 -4 14 -13 10 -21
-3 -8 -1 -15 4 -15 6 0 10 -7 10 -16 0 -19 25 -45 35 -36 4 4 2 -3 -4 -15 -6
-13 -9 -24 -6 -24 3 -1 8 -2 13 -3 19 -4 31 -18 25 -33 -5 -12 -2 -15 10 -10
11 4 14 2 11 -7 -3 -7 2 -16 11 -20 10 -3 15 -12 12 -19 -3 -8 5 -22 18 -31
15 -11 22 -25 20 -38 -3 -11 -2 -18 1 -15 12 12 32 -17 22 -30 -7 -8 -7 -13
-1 -13 18 0 58 -42 55 -57 -2 -11 2 -14 13 -9 10 3 14 2 10 -4 -4 -6 2 -18 12
-28 11 -9 12 -13 3 -7 -8 5 -5 -2 8 -16 12 -14 20 -29 17 -32 -3 -4 -2 -5 1
-2 4 2 13 -2 20 -10 16 -16 19 -29 4 -20 -16 10 -11 -1 7 -16 14 -12 16 -12 8
0 -5 10 -4 12 3 7 7 -4 12 -14 12 -22 0 -8 5 -14 11 -14 18 0 56 -45 53 -64
-3 -19 12 -22 20 -3 4 6 4 2 2 -11 -2 -12 -1 -20 2 -18 4 2 12 -2 19 -9 10
-11 10 -15 0 -18 -7 -3 -4 -6 5 -6 10 -1 17 -4 17 -8 -4 -23 3 -32 18 -26 11
4 14 3 9 -5 -4 -7 -2 -12 3 -12 6 0 11 -7 11 -16 0 -14 3 -14 15 -4 13 11 14
10 9 -4 -3 -9 -1 -16 6 -16 6 0 8 -5 4 -12 -5 -8 -2 -9 9 -5 9 3 19 1 23 -5 4
-7 3 -8 -4 -4 -7 4 -12 2 -12 -3 0 -6 7 -11 16 -11 8 0 12 -4 9 -10 -3 -6 4
-10 17 -10 18 0 20 -2 8 -10 -13 -8 -12 -10 4 -10 11 0 16 -5 13 -14 -4 -10 1
-12 16 -9 18 4 19 3 7 -6 -13 -9 -12 -11 4 -11 12 0 16 -5 13 -14 -4 -11 -1
-13 10 -9 11 4 14 2 9 -5 -4 -7 -1 -12 9 -12 10 0 13 -5 9 -12 -5 -8 -2 -9 9
-5 9 3 19 1 23 -5 4 -7 3 -8 -4 -4 -7 4 -12 2 -12 -3 0 -6 7 -11 16 -11 9 0
12 -5 8 -12 -5 -7 -2 -9 9 -5 11 4 14 2 10 -9 -3 -9 1 -14 12 -14 10 0 13 -5
9 -12 -5 -7 -2 -9 9 -5 11 4 14 2 10 -9 -3 -8 -2 -14 3 -13 22 4 34 -2 34 -18
0 -15 2 -16 10 -3 8 13 10 12 10 -2 0 -10 7 -18 16 -18 8 0 13 -4 10 -9 -7
-10 42 -33 55 -26 5 4 6 -2 2 -11 -5 -14 -3 -16 11 -11 10 4 15 3 11 -3 -3 -6
2 -10 12 -10 27 0 65 -29 56 -43 -4 -7 2 -5 12 3 14 11 19 12 22 3 3 -7 13
-13 23 -13 10 0 22 -4 25 -10 3 -5 15 -10 26 -10 10 0 19 -4 19 -8 0 -4 8 -8
18 -9 41 -2 72 -8 72 -13 0 -3 19 -4 42 -3 24 1 51 2 61 2 10 1 16 4 13 9 -2
4 19 8 47 8 29 1 51 6 50 11 -1 5 4 10 12 10 8 0 11 -5 8 -11 -4 -6 0 -5 9 1
8 7 18 10 21 6 4 -3 7 -1 7 6 0 7 5 9 10 6 6 -3 10 -1 10 5 0 6 5 8 10 5 6 -3
13 0 16 9 3 8 19 19 35 25 16 5 29 15 29 20 0 6 5 11 11 11 5 0 7 -4 4 -10 -3
-5 -4 -10 -1 -10 3 0 13 16 22 35 11 23 23 35 36 35 17 0 18 3 9 14 -10 12 -9
13 7 9 25 -6 38 13 22 33 -11 12 -14 12 -27 -3 -8 -10 -11 -12 -7 -4 4 9 2 12
-7 9 -8 -3 -13 -11 -11 -17 1 -7 -2 -10 -7 -7 -11 7 -71 -22 -71 -35 0 -6 -9
-5 -21 2 -12 6 -19 7 -15 1 12 -19 -52 -30 -172 -28 -67 0 -122 -3 -122 -8 0
-5 -10 -1 -22 10 -12 10 -18 13 -14 7 5 -9 2 -11 -8 -7 -9 3 -16 9 -16 13 0 4
-6 8 -12 9 -25 2 -48 8 -54 15 -4 4 -18 7 -31 7 -12 0 -23 5 -23 10 0 6 -7 10
-16 10 -16 0 -46 25 -39 32 3 3 -2 5 -10 5 -8 0 -12 -4 -9 -9 4 -5 -3 -4 -15
4 -12 7 -19 19 -16 26 3 7 1 11 -4 7 -5 -3 -11 -2 -14 2 -2 5 -2 2 0 -6 3 -11
1 -11 -12 -1 -8 7 -12 17 -8 24 4 6 -1 5 -10 -3 -15 -12 -17 -12 -11 4 5 13 4
16 -4 11 -7 -4 -12 -2 -12 4 0 6 -5 8 -12 4 -8 -5 -9 -2 -5 9 3 9 1 19 -5 23
-7 4 -8 3 -4 -4 10 -16 0 -15 -29 4 -14 9 -25 23 -25 30 0 8 -7 14 -15 14 -8
0 -15 5 -15 10 0 6 -7 10 -16 10 -14 0 -15 2 -3 17 10 11 10 14 2 9 -8 -4 -13
-2 -13 4 0 6 -4 8 -10 5 -5 -3 -10 1 -10 9 0 9 -7 16 -16 16 -8 0 -12 5 -9 10
5 9 -7 14 -27 12 -3 -1 -9 5 -12 14 -4 10 -2 13 6 8 7 -4 8 -3 4 4 -4 7 -16
12 -27 12 -10 0 -19 5 -19 11 0 5 4 7 10 4 5 -3 7 0 4 9 -3 8 -12 12 -20 9 -7
-3 -17 2 -20 11 -3 9 -10 13 -15 10 -5 -3 -6 3 -2 12 4 12 3 15 -5 10 -7 -4
-12 -1 -12 8 0 8 -9 21 -21 29 -11 8 -21 24 -22 34 -1 15 -7 19 -22 16 -16 -4
-17 -3 -5 6 10 7 11 11 3 11 -7 0 -13 7 -13 15 0 8 -4 15 -10 15 -5 0 -7 -8
-5 -17 3 -10 -1 -6 -8 10 -7 15 -17 24 -21 20 -5 -5 -7 -1 -4 7 2 8 -5 22 -16
31 -12 10 -21 27 -21 38 0 13 -10 27 -24 34 -13 7 -25 20 -27 31 -1 10 -8 24
-15 30 -9 8 -10 8 -4 -3 5 -9 4 -12 -3 -7 -6 4 -9 13 -5 21 3 8 0 15 -7 15 -6
0 -8 5 -4 12 5 8 2 9 -9 5 -9 -3 -16 -3 -16 1 3 21 -2 52 -8 51 -20 -3 -24 2
-14 15 9 11 8 14 -6 12 -11 0 -18 6 -18 16 0 9 -4 20 -9 25 -5 5 -6 2 -1 -6 6
-10 4 -12 -4 -7 -7 5 -10 14 -7 21 2 7 -2 16 -11 19 -9 4 -13 9 -10 12 3 4 -2
14 -11 23 -10 9 -12 12 -5 7 10 -6 12 -5 8 6 -3 9 -17 20 -30 26 -17 8 -23 17
-20 32 2 11 1 19 -3 16 -4 -2 -12 2 -19 9 -10 11 -10 15 0 18 9 4 9 6 0 6 -7
1 -13 10 -13 20 0 11 -8 26 -18 33 -10 7 -22 20 -27 28 -8 13 -6 13 11 1 10
-8 6 -2 -9 13 -16 16 -26 34 -23 42 3 7 -4 16 -15 19 -10 4 -19 11 -19 16 0 6
6 7 13 4 6 -4 5 -1 -4 7 -9 7 -15 21 -13 31 1 9 -4 17 -12 17 -7 0 -11 6 -8
14 3 8 -5 21 -18 30 -12 9 -17 16 -10 16 10 0 9 4 -2 16 -9 8 -14 20 -11 25 4
5 1 9 -5 9 -6 0 -8 5 -4 13 6 8 3 8 -9 -1 -14 -12 -16 -11 -12 7 2 11 -3 27
-11 35 -17 18 -18 29 -1 21 6 -4 5 -1 -4 7 -9 7 -14 19 -12 26 3 6 0 12 -7 12
-6 0 -9 4 -6 9 3 5 -1 12 -10 15 -10 4 -14 14 -11 25 3 15 1 18 -11 14 -11 -5
-14 -2 -9 10 3 8 0 21 -8 27 -7 6 -12 26 -11 45 1 27 -1 31 -12 23 -7 -6 -12
-7 -10 -2 1 5 -4 20 -11 33 -10 18 -10 22 0 16 8 -5 10 -4 5 3 -4 7 -14 12
-21 12 -9 0 -12 6 -9 15 4 8 3 15 0 15 -3 0 -6 -4 -6 -10z m808 -1365 c-3 -3
-9 2 -12 12 -6 14 -5 15 5 6 7 -7 10 -15 7 -18z"/>
<path d="M4170 4266 c-54 -17 -58 -22 -58 -86 0 -52 3 -60 19 -60 11 0 19 -5
19 -11 0 -5 -5 -7 -12 -3 -7 4 -8 3 -4 -4 4 -6 13 -9 21 -5 8 3 15 0 15 -7 0
-9 3 -10 13 -1 8 6 17 8 20 4 4 -3 7 -1 7 6 0 7 4 10 9 6 6 -3 14 3 20 12 6
10 11 14 11 8 0 -5 5 -3 10 5 13 20 13 90 -1 90 -5 0 -7 5 -4 10 3 6 -2 10
-12 11 -16 0 -16 1 2 9 18 8 17 9 -7 9 -14 1 -28 5 -30 9 -1 4 -19 3 -38 -2z
m-26 -24 c3 -5 -1 -9 -9 -9 -8 0 -12 4 -9 9 3 4 7 8 9 8 2 0 6 -4 9 -8z"/>
<path d="M7158 4249 c-5 -3 -9 -9 -9 -13 1 -3 1 -7 1 -8 -4 -24 -1 -219 4
-226 3 -6 2 -13 -2 -16 -5 -3 -6 -26 -2 -51 4 -24 5 -47 2 -50 -8 -8 -8 -99 0
-117 5 -9 4 -19 0 -22 -5 -3 -6 -26 -2 -51 4 -24 4 -47 2 -50 -7 -7 -4 -133 3
-145 3 -5 1 -11 -4 -15 -6 -3 -8 -12 -4 -20 6 -17 53 -20 53 -4 0 8 6 7 17 -2
9 -8 14 -9 10 -2 -9 14 2 45 14 38 4 -3 6 3 4 13 -2 13 5 23 21 31 19 8 24 8
18 -1 -5 -7 -2 -9 8 -5 11 4 20 -3 28 -24 8 -18 18 -28 26 -25 7 3 16 0 20 -6
4 -7 3 -8 -4 -4 -7 4 -12 3 -12 -3 0 -5 19 -12 42 -16 59 -10 138 -12 138 -3
0 5 9 8 20 8 11 0 23 7 26 15 5 12 9 13 20 4 12 -10 13 -8 8 6 -6 14 -4 16 6
10 10 -6 12 -4 7 8 -4 12 -2 14 10 10 11 -4 14 -2 9 5 -4 7 -2 12 4 12 6 0 9
4 6 9 -3 5 1 11 9 15 8 3 15 10 15 16 0 6 -5 8 -12 4 -7 -4 -8 -3 -4 4 4 7 15
12 24 12 15 0 15 2 2 10 -8 5 -10 10 -4 10 17 0 19 217 2 238 -11 13 -11 15 2
8 8 -4 7 -1 -3 7 -14 11 -15 16 -5 20 11 4 11 6 0 6 -7 1 -10 6 -7 11 3 6 -1
17 -9 26 -9 9 -14 19 -11 24 3 4 -8 13 -24 20 -16 6 -32 18 -35 26 -4 10 -2
12 6 8 7 -4 8 -3 4 4 -4 7 -16 12 -27 12 -11 0 -18 4 -15 8 2 4 -3 8 -12 9
-19 1 -68 11 -94 19 -10 3 -18 1 -18 -4 0 -5 -11 -7 -25 -4 -15 2 -25 0 -25
-7 0 -6 -5 -11 -11 -11 -5 0 -7 5 -4 10 3 6 4 10 0 10 -3 0 -10 -11 -15 -24
-5 -14 -19 -25 -35 -28 l-27 -6 4 59 c2 33 -1 59 -6 59 -5 0 -3 7 4 15 10 12
10 15 -1 15 -9 0 -10 3 -3 10 9 9 8 89 -1 98 -6 6 -117 7 -127 1z m312 -299
c4 -7 12 -10 18 -6 6 3 14 1 18 -5 4 -8 3 -9 -4 -5 -7 4 -12 2 -12 -3 0 -6 5
-11 10 -11 6 0 10 -9 10 -20 0 -11 7 -23 16 -27 13 -5 13 -7 2 -14 -9 -6 -10
-9 -1 -9 7 0 10 -7 7 -15 -4 -8 -1 -15 5 -15 7 0 10 -25 7 -77 -4 -89 -13
-135 -28 -144 -6 -4 -7 -12 -4 -18 4 -6 2 -11 -4 -11 -7 0 -9 -7 -6 -17 4 -10
4 -14 0 -10 -4 4 -13 -1 -21 -11 -8 -9 -12 -11 -8 -5 4 9 1 11 -9 7 -9 -3 -13
-10 -10 -15 3 -5 -8 -8 -23 -8 -44 2 -64 10 -57 21 4 6 -2 6 -15 -1 -11 -7
-21 -17 -21 -23 0 -6 -3 -8 -7 -5 -3 4 2 16 13 28 10 11 14 20 9 19 -22 -5
-27 1 -15 16 11 12 11 15 -1 12 -8 -2 -13 4 -13 15 1 9 -2 17 -7 17 -12 0 -9
218 4 263 5 20 15 37 21 37 8 0 8 2 0 8 -7 5 -5 14 9 27 11 11 16 13 12 5 -5
-10 -2 -9 11 3 21 20 81 18 94 -3z"/>
<path d="M590 4229 c0 -5 5 -7 10 -4 6 3 10 8 10 11 0 2 -4 4 -10 4 -5 0 -10
-5 -10 -11z"/>
<path d="M2259 4190 c-14 -9 -16 -717 -2 -731 13 -13 123 -18 123 -6 0 5 5 5
10 2 14 -9 290 -9 311 -1 12 5 14 16 10 43 l-6 35 -137 0 -137 0 0 267 c0 146
0 294 0 327 l-1 62 -35 4 c-19 2 -35 0 -35 -5 0 -4 -5 -5 -12 -1 -15 10 -75
12 -89 4z"/>
<path d="M5654 4191 c-10 -11 -3 -32 9 -25 8 5 8 2 -2 -9 -8 -11 -9 -17 -3
-17 7 0 11 -15 10 -35 -1 -19 4 -41 11 -49 9 -11 9 -15 -1 -19 -10 -4 -10 -6
0 -6 7 -1 12 -15 12 -36 0 -19 4 -35 10 -35 5 0 8 -14 6 -30 -2 -17 1 -33 6
-36 5 -4 8 -15 5 -25 -3 -10 -1 -19 4 -21 5 -2 10 -15 11 -30 1 -16 6 -28 10
-28 4 0 5 -7 2 -15 -4 -8 -1 -15 6 -15 10 0 10 -3 0 -15 -8 -9 -9 -15 -2 -15
6 0 9 -9 7 -20 -2 -11 0 -18 5 -15 5 3 10 -9 10 -27 1 -59 4 -77 12 -72 4 3 8
-8 8 -23 0 -16 6 -35 13 -42 10 -11 9 -12 -1 -6 -11 6 -12 3 -3 -13 6 -11 11
-30 11 -41 0 -16 7 -21 28 -22 15 0 35 -2 45 -4 9 -2 17 1 17 6 0 6 7 6 18 0
13 -7 24 -3 47 18 17 15 31 36 32 46 0 11 4 31 8 45 4 14 7 35 6 47 0 12 4 25
10 28 6 5 6 12 -3 23 -10 12 -10 14 0 8 11 -7 16 10 15 52 -1 6 3 12 9 12 5 0
6 5 3 10 -3 6 -2 10 3 10 5 0 7 11 4 25 -2 14 2 33 9 42 9 11 10 14 2 9 -8 -4
-11 -2 -8 6 3 8 15 14 25 15 11 1 18 -2 15 -7 -3 -5 -1 -11 4 -14 5 -3 9 -22
9 -41 0 -20 6 -43 14 -52 11 -14 11 -16 -2 -8 -12 6 -13 5 -2 -6 6 -7 12 -37
12 -66 0 -31 4 -53 11 -53 6 0 9 -13 7 -29 -1 -16 4 -36 11 -45 7 -9 11 -16 8
-16 -2 0 -2 -14 2 -32 6 -29 9 -32 46 -31 109 3 131 7 131 22 1 56 5 72 17 65
9 -6 9 -5 0 7 -9 12 -10 18 -1 27 6 6 12 28 13 49 0 21 7 49 15 63 8 14 16 38
18 55 2 16 9 36 15 44 10 12 9 13 -3 6 -12 -6 -13 -5 -2 6 6 7 12 23 12 35 0
13 4 25 10 29 5 3 6 13 3 22 -4 9 -2 14 3 11 5 -4 10 6 10 20 3 46 16 112 23
112 4 0 8 14 9 32 2 17 8 38 15 47 10 12 9 13 -3 6 -12 -7 -13 -6 -3 7 7 8 10
18 6 21 -3 4 -2 7 4 7 6 0 8 11 5 25 -2 14 -8 22 -13 19 -5 -3 -9 -1 -9 3 0
12 -62 10 -76 -2 -6 -5 -10 -15 -7 -21 2 -7 -1 -15 -7 -19 -9 -6 -9 -10 1 -16
10 -6 11 -9 2 -9 -8 0 -13 -13 -13 -33 0 -18 -6 -39 -12 -46 -11 -11 -10 -12
2 -6 12 7 13 6 3 -6 -7 -8 -14 -34 -15 -57 -2 -23 -7 -42 -11 -42 -5 0 -5 -4
-2 -10 3 -5 3 -10 -2 -10 -4 0 -9 -10 -9 -22 -3 -41 -16 -93 -26 -105 -5 -7
-8 -16 -5 -20 9 -15 -12 -53 -26 -47 -7 2 -14 10 -14 17 0 7 -3 25 -7 41 -4
18 -3 25 3 21 7 -3 8 0 5 9 -3 9 -10 16 -15 16 -5 0 -9 22 -9 48 0 26 -6 54
-12 61 -11 11 -10 12 0 6 11 -6 12 -3 3 12 -5 11 -11 37 -13 57 -1 20 -6 36
-11 36 -5 0 -7 9 -4 20 3 11 0 20 -5 20 -6 0 -5 6 2 15 9 11 9 15 1 15 -7 0
-9 5 -6 10 3 6 2 10 -2 10 -5 0 -10 9 -11 20 -4 41 -6 45 -29 45 -12 0 -23 -4
-23 -9 0 -5 -6 -4 -12 0 -11 8 -36 10 -85 5 -9 -1 -13 -17 -13 -47 0 -32 -3
-43 -12 -38 -6 4 -8 3 -4 -4 3 -6 2 -13 -3 -16 -5 -3 -7 -15 -4 -26 3 -11 0
-26 -6 -34 -9 -11 -9 -16 0 -22 9 -5 9 -10 -2 -18 -16 -13 -21 -46 -7 -46 6 0
5 -6 -2 -15 -7 -8 -10 -15 -7 -15 3 0 0 -12 -8 -26 -7 -15 -11 -32 -8 -40 2
-7 1 -19 -3 -26 -9 -14 -10 -19 -12 -60 -2 -21 -6 -25 -22 -21 -19 5 -23 20
-23 95 0 10 -4 15 -10 11 -6 -4 -8 2 -5 15 4 12 0 26 -8 33 -12 9 -12 15 -2
27 8 10 9 13 2 9 -8 -5 -13 7 -16 34 -2 22 0 43 5 46 4 3 0 14 -10 26 -12 14
-13 18 -3 12 13 -7 13 -6 2 7 -7 9 -13 32 -14 52 -1 20 -6 36 -11 36 -5 0 -7
12 -4 26 3 17 1 24 -8 21 -6 -3 -18 -2 -25 3 -7 4 -26 4 -41 0 -16 -5 -29 -6
-29 -2 0 7 -69 10 -76 3z"/>
<path d="M2992 4052 c-30 -2 -40 -7 -35 -15 4 -7 -2 -5 -12 3 -11 9 -16 10
-11 3 4 -8 2 -13 -4 -13 -6 0 -9 -4 -6 -8 3 -5 -5 -8 -16 -8 -13 1 -27 -8 -33
-21 -7 -13 -14 -21 -16 -18 -3 2 -11 -6 -18 -18 -12 -19 -12 -21 0 -12 8 6 6
2 -5 -9 -12 -10 -21 -23 -21 -30 0 -6 -6 -21 -12 -32 -7 -12 -9 -24 -6 -28 3
-3 2 -6 -4 -6 -11 0 -11 -35 0 -46 4 -4 2 -13 -4 -21 -9 -10 -8 -13 1 -13 9 0
10 -3 1 -13 -6 -8 -9 -16 -7 -18 3 -3 6 -32 7 -66 1 -38 6 -60 12 -56 6 4 8
-2 4 -16 -3 -15 1 -24 14 -32 11 -5 17 -14 14 -20 -4 -5 -1 -9 4 -9 6 0 11 -6
11 -14 0 -8 10 -16 23 -18 12 -2 21 -9 20 -15 -2 -7 4 -10 12 -7 9 4 18 -1 21
-11 4 -9 13 -14 20 -11 8 3 14 2 14 -2 0 -4 43 -6 96 -5 84 2 98 5 110 22 8
11 21 18 29 15 10 -4 15 0 15 10 0 9 11 21 24 26 13 5 27 14 32 21 4 8 3 10
-4 5 -7 -4 -12 -2 -12 3 0 6 5 11 11 11 8 0 7 6 -2 17 -12 15 -12 16 1 8 8 -4
6 1 -5 12 -19 19 -20 19 -33 1 -7 -10 -17 -16 -22 -13 -5 3 -10 -5 -12 -17 -2
-12 -9 -23 -17 -26 -9 -3 -11 0 -6 8 5 9 4 11 -4 6 -9 -6 -9 -11 1 -24 11 -13
10 -15 -4 -9 -10 3 -20 2 -23 -3 -3 -6 -29 -8 -58 -6 -72 6 -92 12 -89 25 1 6
-2 11 -8 11 -5 0 -10 5 -10 11 0 5 6 7 13 3 7 -4 9 -3 4 2 -5 5 -14 9 -20 9
-7 0 -12 18 -13 46 l-1 47 43 -2 c24 0 44 4 44 9 0 7 3 7 8 0 9 -13 112 -13
112 -1 0 5 3 6 7 3 3 -4 13 -1 21 6 13 10 14 9 8 -3 -5 -8 3 -3 18 13 27 27
54 38 40 15 -4 -7 -3 -8 5 -4 9 6 9 11 -1 24 -10 12 -10 14 0 8 7 -4 12 -2 12
4 0 6 4 9 8 6 9 -5 12 20 15 111 1 43 -2 64 -11 68 -7 2 -12 8 -11 12 4 21 -2
33 -12 27 -8 -4 -9 1 -4 16 5 16 4 20 -5 15 -6 -4 -18 1 -26 11 -9 11 -13 13
-9 6 6 -11 -8 -4 -77 38 -13 8 -18 8 -18 0 0 -6 -5 -8 -12 -4 -13 8 -55 10
-116 6z m-82 -46 c0 -2 -7 -7 -16 -10 -8 -3 -12 -2 -9 4 6 10 25 14 25 6z
m184 -28 c-4 -6 2 -7 16 -3 15 5 20 4 16 -4 -4 -6 -2 -11 4 -11 7 0 9 -7 6
-15 -4 -11 0 -15 11 -13 14 3 18 -8 21 -65 3 -60 1 -72 -18 -92 -12 -13 -19
-28 -16 -34 4 -7 1 -8 -8 -5 -9 4 -18 0 -22 -9 -3 -9 -15 -14 -30 -12 -13 1
-24 -2 -24 -7 0 -5 -9 -4 -20 2 -11 6 -20 7 -20 2 0 -10 -65 9 -77 23 -5 4 -2
5 5 1 6 -4 12 -2 12 3 0 6 -5 11 -10 11 -18 0 -8 83 12 112 11 16 16 32 13 38
-3 6 1 13 9 16 9 3 13 10 10 15 -3 5 2 9 10 9 8 0 23 10 32 23 17 22 81 36 68
15z m-64 -2 c0 -2 -7 -9 -15 -16 -13 -11 -14 -10 -9 4 5 14 24 23 24 12z m132
-213 c-6 -2 -9 -10 -6 -15 4 -7 2 -8 -5 -4 -13 9 -5 26 12 25 9 0 8 -2 -1 -6z"/>
<path d="M3590 4048 c0 -5 -9 -8 -20 -8 -11 0 -23 -6 -26 -14 -3 -8 -12 -12
-20 -9 -9 3 -14 -1 -14 -11 0 -9 -8 -19 -17 -23 -35 -12 -44 -24 -31 -40 6 -8
7 -13 2 -12 -22 4 -33 -2 -28 -16 4 -8 1 -15 -7 -15 -7 0 -9 -3 -6 -6 3 -4 2
-14 -3 -24 -14 -26 -14 -226 -1 -222 9 2 9 -3 1 -18 -6 -11 -7 -20 -3 -20 4 0
13 -11 20 -25 8 -19 8 -24 0 -19 -7 3 -2 -3 10 -14 17 -15 19 -22 10 -31 -9
-9 -8 -11 7 -5 13 5 17 4 12 -4 -7 -11 6 -17 28 -13 5 1 6 -5 3 -13 -4 -9 -1
-18 5 -22 7 -5 8 -2 3 6 -5 8 -3 11 6 8 8 -3 13 -14 12 -24 -1 -10 0 -13 3 -6
6 13 34 17 34 5 0 -5 11 -8 25 -8 14 0 25 4 25 8 0 5 5 5 11 1 17 -10 104 -8
102 2 -1 5 12 9 27 9 29 1 29 0 29 -52 -1 -32 -5 -51 -11 -47 -6 4 -5 -3 1
-15 10 -18 9 -20 -5 -14 -12 4 -15 3 -10 -5 4 -7 2 -12 -3 -12 -6 0 -11 -7
-11 -15 0 -9 -11 -20 -25 -25 -14 -5 -25 -14 -25 -19 0 -5 -16 -8 -35 -6 -19
2 -35 -1 -35 -5 0 -4 -9 -6 -20 -3 -11 3 -20 10 -20 17 0 6 -5 4 -10 -4 -8
-13 -10 -12 -10 4 0 13 -5 17 -20 13 -17 -4 -18 -2 -9 14 7 15 7 19 -3 17 -7
-2 -12 2 -11 9 1 6 -4 14 -13 17 -10 4 -13 1 -9 -7 4 -6 1 -5 -7 3 -19 21 -39
23 -31 3 4 -9 2 -14 -3 -11 -5 4 -10 -5 -10 -18 -1 -13 2 -24 8 -24 5 0 6 6 2
13 -4 6 2 4 14 -6 11 -11 18 -25 15 -33 -5 -12 13 -19 39 -15 4 0 4 -7 1 -16
-5 -12 -2 -15 10 -10 19 7 33 -9 15 -17 -7 -3 -3 -3 10 0 12 3 22 2 22 -3 0
-4 35 -7 77 -6 86 2 101 4 122 17 10 7 12 5 7 -5 -4 -8 1 -5 11 7 10 11 25 18
32 16 8 -3 11 0 7 7 -4 6 -2 11 4 11 6 0 8 5 4 13 -6 9 -4 9 8 -1 13 -10 18
-10 24 -1 4 8 3 9 -4 5 -7 -4 -12 -2 -12 3 0 6 5 11 12 11 6 0 9 3 5 6 -3 4 1
13 9 21 8 8 12 19 8 24 -3 5 1 11 8 14 8 3 15 20 16 37 2 17 8 38 15 47 9 12
9 13 0 7 -9 -5 -11 -2 -7 8 3 9 9 16 13 16 3 0 5 129 4 287 -2 219 -6 288 -15
294 -7 5 -15 4 -16 -1 -2 -6 -8 -8 -13 -4 -5 3 -9 0 -9 -5 0 -6 -7 -11 -16
-11 -8 0 -12 -4 -9 -10 6 -9 -8 -14 -28 -11 -5 1 -6 -3 -2 -9 3 -6 12 -7 18
-4 7 4 1 -4 -12 -17 -16 -17 -25 -20 -28 -11 -3 6 -10 9 -16 5 -7 -4 -8 0 -4
11 5 14 3 17 -8 13 -15 -7 -29 9 -30 33 0 9 -7 14 -17 12 -11 -2 -18 3 -18 13
0 8 -5 15 -11 15 -5 0 -7 -6 -3 -12 6 -10 5 -10 -8 -1 -8 7 -18 10 -21 6 -4
-3 -7 -2 -7 3 0 5 -20 9 -45 9 -25 0 -45 -3 -45 -7z m-110 -88 c0 -5 -5 -10
-11 -10 -5 0 -7 5 -4 10 3 6 8 10 11 10 2 0 4 -4 4 -10z m234 -7 c5 -13 9 -13
23 -2 10 8 14 9 10 2 -4 -7 3 -22 17 -36 18 -18 22 -27 13 -36 -8 -8 -8 -11 1
-11 9 0 11 -14 9 -45 -2 -25 0 -50 4 -57 4 -7 5 -16 2 -21 -3 -5 -5 -34 -5
-64 0 -55 -22 -118 -38 -108 -4 3 -7 -3 -6 -13 0 -11 -6 -16 -17 -16 -15 2
-16 -1 -5 -14 11 -13 10 -15 -4 -9 -10 3 -20 2 -23 -4 -8 -11 -59 -3 -63 11
-2 5 -8 10 -13 10 -6 0 -7 -5 -3 -12 4 -6 3 -8 -4 -5 -5 4 -8 17 -4 29 3 11 1
19 -4 16 -5 -3 -15 0 -22 8 -10 11 -10 14 0 14 9 0 9 3 -2 10 -8 5 -11 10 -6
10 5 0 3 6 -3 13 -6 8 -8 17 -4 20 3 4 2 7 -4 7 -10 0 -11 170 -1 200 3 8 8
27 13 43 4 15 10 27 14 27 4 0 16 7 27 16 10 8 12 13 4 9 -9 -4 -8 -1 3 8 24
20 84 20 91 0z"/>
<path d="M4677 4054 c-3 -3 -26 -6 -51 -6 -29 0 -49 -5 -54 -14 -4 -7 -17 -15
-29 -17 -13 -2 -26 -7 -30 -12 -5 -4 -2 -5 5 -1 16 10 15 -2 -2 -19 -7 -8 -17
-11 -21 -7 -5 4 -5 -1 -2 -10 5 -13 2 -15 -11 -11 -15 6 -15 5 -3 -10 12 -15
12 -17 -4 -11 -14 6 -16 4 -10 -7 7 -12 6 -12 -7 -1 -13 10 -18 10 -24 1 -4
-8 -3 -9 4 -5 7 4 12 2 12 -3 0 -6 -5 -11 -11 -11 -5 0 -7 -4 -4 -10 3 -5 1
-10 -4 -10 -6 0 -11 -4 -11 -9 0 -5 -5 -22 -12 -38 -7 -15 -13 -32 -14 -38 -1
-5 -2 -12 -3 -15 -6 -15 -5 -107 0 -104 4 2 9 -3 13 -11 3 -8 0 -15 -7 -15 -9
0 -9 -2 0 -8 6 -4 13 -16 15 -27 1 -11 11 -26 21 -33 9 -7 17 -22 17 -33 0
-10 7 -19 15 -19 9 0 18 -7 21 -15 4 -8 11 -12 17 -8 6 4 8 0 4 -10 -4 -11 -1
-17 8 -17 7 0 20 -6 27 -12 20 -20 77 -38 84 -27 3 5 9 7 13 4 18 -10 127 -8
149 4 12 6 27 9 32 6 6 -3 7 1 4 10 -5 11 -2 14 10 9 9 -3 16 -1 16 5 0 16 33
51 48 51 8 0 12 6 8 15 -3 9 4 21 19 31 14 9 21 22 18 30 -3 8 0 14 7 14 6 0
8 5 5 11 -4 5 1 20 12 31 10 12 12 18 4 13 -11 -6 -13 -4 -7 11 5 10 7 42 6
69 -1 28 -3 55 -3 62 0 7 -5 9 -10 6 -6 -4 -8 2 -5 15 4 15 2 19 -9 15 -9 -4
-13 0 -12 8 2 8 -3 24 -10 37 -7 13 -10 31 -7 39 5 13 4 14 -9 3 -13 -11 -14
-10 -9 4 5 12 2 15 -12 9 -12 -4 -15 -3 -10 5 4 7 2 12 -4 12 -6 0 -8 5 -4 12
5 8 0 9 -14 6 -12 -4 -20 -2 -16 3 3 5 0 9 -6 9 -6 0 -9 4 -5 9 3 6 -3 8 -14
6 -11 -2 -22 2 -24 9 -3 7 -24 13 -47 14 -23 1 -45 4 -50 7 -4 2 -10 2 -13 -1z
m54 -85 c5 -8 8 -7 12 2 4 10 6 8 6 -4 1 -12 5 -16 14 -11 9 6 9 4 -1 -8 -11
-14 -10 -17 7 -23 18 -5 27 -28 22 -57 0 -5 3 -8 8 -8 12 0 12 -222 0 -236 -5
-7 -8 -18 -7 -25 2 -8 -4 -13 -12 -11 -8 2 -12 0 -8 -3 12 -12 -12 -47 -28
-41 -7 3 -13 2 -13 -2 1 -4 1 -14 0 -22 -1 -13 -2 -13 -11 0 -6 10 -10 11 -10
3 0 -8 -13 -13 -30 -13 -16 0 -30 5 -30 11 0 6 -9 9 -20 6 -11 -3 -18 -1 -14
4 3 5 0 9 -5 9 -6 0 -11 7 -11 15 0 9 -7 18 -16 22 -9 3 -14 13 -11 24 3 12 1
17 -6 12 -6 -4 -8 0 -4 10 3 10 2 17 -3 17 -5 0 -9 50 -8 114 1 73 5 113 12
109 5 -4 7 1 3 10 -3 10 -3 17 1 17 4 0 13 9 19 20 11 17 10 18 -5 14 -9 -4
-2 4 17 16 28 17 32 24 20 32 -11 8 -11 9 3 4 10 -3 20 -1 23 4 8 13 77 4 86
-11z"/>
<path d="M5376 4043 c-5 -12 -9 -13 -21 -3 -11 9 -15 9 -15 1 0 -7 -4 -9 -10
-6 -5 3 -10 -1 -10 -9 0 -10 -6 -13 -17 -9 -11 4 -14 3 -9 -5 4 -7 2 -13 -3
-13 -6 -1 -15 -2 -20 -3 -5 0 -13 -5 -18 -10 -5 -5 -3 -6 5 -2 16 10 15 -5 -4
-29 -24 -33 -64 -22 -64 17 0 13 -4 17 -12 12 -9 -5 -9 -2 1 9 12 16 8 21 -12
18 -4 -1 -15 6 -24 14 -9 10 -19 13 -25 7 -9 -9 -13 -570 -3 -580 6 -6 125 -5
132 1 4 4 6 124 3 142 -1 6 -1 15 0 20 4 20 0 137 -5 145 -3 5 -1 11 4 14 5 3
7 16 3 28 -4 16 -2 19 8 13 8 -5 11 -4 6 3 -3 6 -3 13 2 16 5 3 7 19 6 35 -1
17 2 31 8 31 5 0 6 5 2 12 -5 8 -2 9 11 4 14 -5 15 -3 8 6 -8 9 -5 19 10 33
11 11 17 14 13 8 -4 -7 -2 -13 3 -13 6 0 11 4 11 8 0 13 33 11 49 -2 11 -8 13
-8 8 1 -5 7 0 9 13 6 16 -4 18 -8 9 -20 -7 -8 -8 -13 -3 -12 40 7 52 -25 52
-153 1 -58 2 -109 3 -114 1 -5 0 -12 -1 -16 -1 -5 -3 -26 -4 -48 -4 -57 -5
-62 -14 -56 -5 3 -6 -8 -4 -25 3 -19 0 -29 -8 -29 -10 0 -10 -3 0 -15 10 -12
9 -16 -4 -21 -9 -3 -13 -10 -10 -15 3 -6 0 -16 -6 -24 -7 -8 -9 -15 -4 -15 5
0 3 -4 -4 -9 -11 -7 -11 -11 2 -23 8 -9 13 -18 10 -21 -3 -2 7 -7 21 -9 16 -4
25 -1 25 8 0 7 4 16 10 19 6 4 7 -1 3 -12 -6 -15 -5 -16 9 -3 9 8 16 17 16 20
-1 20 3 30 11 26 4 -3 8 4 7 17 0 12 4 21 11 20 7 -2 10 7 7 22 -3 16 0 24 8
23 12 -3 14 3 17 43 1 12 5 17 13 13 7 -4 8 -3 4 5 -4 6 -1 25 8 41 9 19 10
28 3 23 -8 -4 -7 -1 1 9 9 12 13 55 12 155 -1 170 -1 173 -12 167 -4 -3 -8 4
-8 15 0 11 -5 23 -12 27 -7 5 -8 3 -3 -6 5 -8 4 -11 -3 -6 -6 4 -8 14 -5 22 5
13 1 15 -18 9 -17 -4 -20 -3 -10 3 16 12 6 33 -13 26 -7 -3 -16 1 -19 9 -3 8
-21 14 -44 15 -21 1 -48 4 -60 6 -13 3 -24 -1 -27 -11z"/>
<path d="M6752 4038 c-56 -12 -106 -62 -145 -147 -26 -55 -31 -77 -31 -146 0
-97 26 -159 90 -211 44 -36 108 -67 118 -57 3 4 6 1 6 -6 0 -7 5 -9 13 -4 6 4
21 8 32 8 62 2 124 28 164 69 41 42 41 43 22 60 -19 17 -20 17 -46 -22 -32
-49 -65 -64 -134 -61 -43 2 -59 8 -88 35 -30 27 -37 42 -41 83 l-4 50 98 -2
c129 -3 151 2 189 38 66 63 79 131 41 210 -46 92 -152 131 -284 103z m132 -99
c22 -16 37 -29 33 -29 -4 0 1 -9 12 -21 25 -27 31 -61 16 -96 -20 -46 -45 -61
-95 -58 -25 2 -69 4 -99 4 l-53 1 6 60 c6 56 38 141 65 174 16 19 59 5 115
-35z"/>
<path d="M4121 4031 c-11 -7 -18 -171 -8 -188 4 -6 3 -14 -1 -17 -5 -3 -6 -26
-2 -51 4 -24 5 -47 2 -50 -8 -8 -8 -99 0 -117 5 -9 4 -19 0 -22 -5 -3 -6 -26
-2 -50 4 -25 3 -49 -1 -53 -21 -21 10 -34 80 -34 40 0 75 2 78 4 7 7 5 568 -2
575 -9 9 -75 8 -75 -1 0 -4 -6 -5 -12 -1 -16 10 -45 12 -57 5z"/>
<path d="M3775 3990 c3 -5 8 -10 11 -10 2 0 4 5 4 10 0 6 -5 10 -11 10 -5 0
-7 -4 -4 -10z"/>
<path d="M4916 3572 c-3 -5 1 -9 9 -9 8 0 12 4 9 9 -3 4 -7 8 -9 8 -2 0 -6 -4
-9 -8z"/>
<path d="M3176 3463 c-6 -14 -5 -15 5 -6 7 7 10 15 7 18 -3 3 -9 -2 -12 -12z"/>
<path d="M5975 3471 c-3 -5 -2 -12 3 -15 5 -3 9 1 9 9 0 17 -3 19 -12 6z"/>
<path d="M3470 3270 c0 -5 5 -10 11 -10 5 0 7 5 4 10 -3 6 -8 10 -11 10 -2 0
-4 -4 -4 -10z"/>
<path d="M606 3187 c3 -10 9 -15 12 -12 3 3 0 11 -7 18 -10 9 -11 8 -5 -6z"/>
<path d="M1750 3126 c0 -2 8 -10 18 -17 15 -13 16 -12 3 4 -13 16 -21 21 -21
13z"/>
<path d="M4250 2758 c0 -88 3 -108 15 -108 12 0 14 19 13 108 -1 84 -4 109
-15 109 -10 0 -13 -25 -13 -109z"/>
<path d="M4407 2852 c-10 -10 -17 -24 -17 -32 0 -7 -8 -19 -17 -26 -17 -13
-17 -13 0 -14 14 0 17 -10 17 -65 0 -48 4 -65 14 -65 10 0 13 15 12 56 -1 56
4 77 20 74 5 -1 10 3 12 9 2 6 -5 11 -16 11 -29 0 -17 38 14 46 13 3 21 10 18
15 -9 15 -40 10 -57 -9z"/>
<path d="M3501 2852 c-7 -2 -11 -38 -11 -103 l0 -99 45 0 c81 0 125 40 125
111 0 71 -81 117 -159 91z m111 -39 c27 -25 24 -88 -7 -118 -29 -30 -84 -35
-86 -7 -4 78 0 135 11 142 18 11 61 2 82 -17z"/>
<path d="M3700 2850 c-12 -7 -12 -12 -3 -21 10 -10 14 -9 19 5 8 22 2 27 -16
16z"/>
<path d="M3935 2850 c-7 -12 2 -30 16 -30 12 0 12 27 0 35 -5 3 -12 1 -16 -5z"/>
<path d="M4814 2853 c-7 -5 -11 -45 -10 -105 l0 -98 41 0 c53 0 85 23 85 60 0
17 -7 33 -16 38 -15 9 -15 12 -2 31 18 26 13 57 -10 66 -28 12 -76 16 -88 8z
m67 -22 c4 -1 10 -8 13 -17 9 -22 -11 -44 -40 -44 -20 0 -24 5 -24 28 0 34 6
41 28 37 9 -2 20 -4 23 -4z m0 -91 c23 -13 25 -55 3 -64 -41 -16 -54 -7 -54
34 0 43 13 50 51 30z"/>
<path d="M5255 2850 c-10 -17 12 -37 25 -24 8 8 6 15 -4 23 -10 9 -16 9 -21 1z"/>
<path d="M4013 2823 c-4 -10 -14 -23 -22 -30 -14 -11 -14 -12 2 -13 14 0 17
-10 17 -60 0 -54 3 -62 23 -69 12 -5 25 -7 30 -4 13 7 8 23 -8 23 -8 0 -15 3
-16 8 -7 71 -3 93 18 98 26 7 21 26 -5 22 -12 -2 -16 3 -14 20 4 26 -16 30
-25 5z"/>
<path d="M3690 2725 c0 -60 3 -75 15 -75 12 0 15 15 15 75 0 60 -3 75 -15 75
-12 0 -15 -15 -15 -75z"/>
<path d="M3778 2783 c-9 -10 -19 -32 -22 -49 -12 -56 55 -109 92 -72 18 18 23
5 9 -22 -10 -20 -21 -25 -50 -25 -23 0 -37 -5 -37 -12 0 -22 77 -16 100 7 17
17 20 33 20 105 0 50 -4 85 -10 85 -5 0 -10 -5 -10 -10 0 -7 -6 -7 -19 0 -29
15 -56 12 -73 -7z m75 -24 c17 -23 12 -58 -11 -76 -21 -17 -27 -16 -46 3 -30
30 -10 94 29 94 8 0 20 -9 28 -21z"/>
<path d="M3930 2723 c0 -58 3 -73 15 -73 12 0 15 15 15 73 0 59 -3 74 -15 74
-12 0 -15 -15 -15 -74z"/>
<path d="M4110 2785 c-11 -13 -8 -14 20 -9 22 5 35 3 40 -7 12 -18 3 -29 -24
-29 -26 0 -56 -28 -56 -53 0 -26 38 -47 66 -37 13 5 30 7 38 4 20 -8 20 92 0
124 -17 26 -65 30 -84 7z m66 -101 c-4 -9 -15 -14 -28 -12 -32 4 -31 40 2 48
26 7 37 -8 26 -36z"/>
<path d="M4487 2785 c-10 -7 -21 -31 -24 -53 -7 -50 21 -82 70 -82 63 0 91 67
53 124 -19 30 -68 35 -99 11z m80 -31 c15 -24 15 -29 2 -53 -38 -67 -105 -9
-69 60 15 27 46 24 67 -7z"/>
<path d="M4639 2798 c-1 -4 -1 -98 0 -126 2 -45 26 -17 26 30 0 45 19 83 36
72 5 -3 9 2 9 10 0 19 -21 21 -38 4 -9 -9 -12 -9 -12 0 0 10 -18 18 -21 10z"/>
<path d="M4967 2793 c-2 -5 -3 -33 -1 -63 3 -60 27 -92 64 -83 26 7 26 23 0
23 -25 0 -40 28 -39 72 1 18 1 39 0 46 -1 13 -17 17 -24 5z"/>
<path d="M5067 2793 c-9 -15 -12 -118 -4 -130 18 -29 27 -9 27 62 0 66 -9 91
-23 68z"/>
<path d="M5140 2785 c-18 -22 -4 -62 25 -69 17 -4 25 -13 25 -27 0 -17 -5 -20
-30 -17 -16 1 -30 -2 -30 -7 0 -6 16 -10 36 -10 62 0 73 49 18 79 -40 23 -39
51 2 43 16 -3 24 0 24 9 0 19 -54 18 -70 -1z"/>
<path d="M5258 2793 c-10 -20 -2 -137 9 -140 14 -5 19 26 15 95 -3 46 -14 66
-24 45z"/>
<path d="M5334 2792 c-6 -4 -10 -36 -10 -72 1 -49 5 -65 16 -68 12 -2 15 8 14
48 -1 47 13 80 34 80 24 -1 34 -22 34 -74 1 -40 5 -56 15 -56 20 0 18 114 -3
134 -18 18 -60 21 -70 5 -4 -8 -9 -8 -13 -1 -4 6 -11 8 -17 4z"/>
<path d="M5506 2781 c-24 -27 -28 -60 -10 -98 15 -30 20 -33 60 -33 23 0 46 5
49 10 4 6 -7 10 -25 10 -39 0 -70 16 -70 35 0 11 13 15 54 15 51 0 54 1 49 23
-14 55 -73 76 -107 38z m72 -13 c21 -21 13 -28 -28 -28 -22 0 -40 4 -40 8 0
14 23 32 40 32 9 0 21 -5 28 -12z"/>
<path d="M5649 2776 c-9 -20 -9 -29 1 -41 7 -8 17 -15 22 -15 16 0 40 -29 32
-41 -3 -6 -19 -9 -35 -7 -19 3 -29 0 -29 -8 0 -15 25 -22 57 -16 43 8 42 70
-2 90 -33 15 -34 45 0 40 13 -2 25 2 27 7 2 6 -12 11 -29 13 -27 3 -35 -1 -44
-22z"/>
<path d="M5776 2785 c-9 -9 -16 -22 -16 -29 0 -15 34 -48 42 -41 9 9 30 -24
23 -36 -4 -6 -18 -9 -31 -6 -27 5 -44 -11 -25 -23 17 -10 58 -1 72 16 17 21 3
59 -27 72 -30 14 -27 37 4 37 12 0 22 5 22 10 1 17 -47 17 -64 0z"/>
<path d="M2160 2676 c0 -2 7 -7 16 -10 8 -3 12 -2 9 4 -6 10 -25 14 -25 6z"/>
<path d="M2989 2453 c-13 -16 -12 -17 4 -4 16 13 21 21 13 21 -2 0 -10 -8 -17
-17z"/>
</g>
</svg>
